TITLE ""
FILE "2Q_t_0935-0952.mp3" MP3
  TRACK 01 AUDIO
    TITLE "2Q_t_0935-0952_01"
    INDEX 01 00:00:00
  TRACK 02 AUDIO
    TITLE "2Q_t_0935-0952_02"
    INDEX 01 00:00:08
  TRACK 03 AUDIO
    TITLE "2Q_t_0935-0952_03"
    INDEX 01 00:01:22
  TRACK 04 AUDIO
    TITLE "2Q_t_0935-0952_04"
    INDEX 01 00:02:03
  TRACK 05 AUDIO
    TITLE "2Q_t_0935-0952_05"
    INDEX 01 00:04:06
  TRACK 06 AUDIO
    TITLE "2Q_t_0935-0952_06"
    INDEX 01 00:04:51
  TRACK 07 AUDIO
    TITLE "2Q_t_0935-0952_07"
    INDEX 01 00:05:66
  TRACK 08 AUDIO
    TITLE "2Q_t_0935-0952_08"
    INDEX 01 00:06:40
  TRACK 09 AUDIO
    TITLE "2Q_t_0935-0952_09"
    INDEX 01 00:08:49
  TRACK 10 AUDIO
    TITLE "2Q_t_0935-0952_10"
    INDEX 01 00:09:19
  TRACK 11 AUDIO
    TITLE "2Q_t_0935-0952_11"
    INDEX 01 00:10:28
  TRACK 12 AUDIO
    TITLE "2Q_t_0935-0952_12"
    INDEX 01 00:11:10
  TRACK 13 AUDIO
    TITLE "2Q_t_0935-0952_13"
    INDEX 01 00:13:29
  TRACK 14 AUDIO
    TITLE "2Q_t_0935-0952_14"
    INDEX 01 00:14:01
  TRACK 15 AUDIO
    TITLE "2Q_t_0935-0952_15"
    INDEX 01 00:15:31
  TRACK 16 AUDIO
    TITLE "2Q_t_0935-0952_16"
    INDEX 01 00:16:01
  TRACK 17 AUDIO
    TITLE "2Q_t_0935-0952_17"
    INDEX 01 00:17:75
  TRACK 18 AUDIO
    TITLE "2Q_t_0935-0952_18"
    INDEX 01 00:18:45
  TRACK 19 AUDIO
    TITLE "2Q_t_0935-0952_19"
    INDEX 01 00:19:49
  TRACK 20 AUDIO
    TITLE "2Q_t_0935-0952_20"
    INDEX 01 00:20:27
  TRACK 21 AUDIO
    TITLE "2Q_t_0935-0952_21"
    INDEX 01 00:24:44
  TRACK 22 AUDIO
    TITLE "2Q_t_0935-0952_22"
    INDEX 01 00:25:12
  TRACK 23 AUDIO
    TITLE "2Q_t_0935-0952_23"
    INDEX 01 00:26:23
  TRACK 24 AUDIO
    TITLE "2Q_t_0935-0952_24"
    INDEX 01 00:26:74
  TRACK 25 AUDIO
    TITLE "2Q_t_0935-0952_25"
    INDEX 01 00:28:14
  TRACK 26 AUDIO
    TITLE "2Q_t_0935-0952_26"
    INDEX 01 00:28:60
  TRACK 27 AUDIO
    TITLE "2Q_t_0935-0952_27"
    INDEX 01 00:30:19
  TRACK 28 AUDIO
    TITLE "2Q_t_0935-0952_28"
    INDEX 01 00:30:64
  TRACK 29 AUDIO
    TITLE "2Q_t_0935-0952_29"
    INDEX 01 00:32:18
  TRACK 30 AUDIO
    TITLE "2Q_t_0935-0952_30"
    INDEX 01 00:32:63
  TRACK 31 AUDIO
    TITLE "2Q_t_0935-0952_31"
    INDEX 01 00:34:17
  TRACK 32 AUDIO
    TITLE "2Q_t_0935-0952_32"
    INDEX 01 00:34:66
  TRACK 33 AUDIO
    TITLE "2Q_t_0935-0952_33"
    INDEX 01 00:36:67
  TRACK 34 AUDIO
    TITLE "2Q_t_0935-0952_34"
    INDEX 01 00:37:37
  TRACK 35 AUDIO
    TITLE "2Q_t_0935-0952_35"
    INDEX 01 00:38:56
  TRACK 36 AUDIO
    TITLE "2Q_t_0935-0952_36"
    INDEX 01 00:39:34
  TRACK 37 AUDIO
    TITLE "2Q_t_0935-0952_37"
    INDEX 01 00:41:64
  TRACK 38 AUDIO
    TITLE "2Q_t_0935-0952_38"
    INDEX 01 00:42:34
  TRACK 39 AUDIO
    TITLE "2Q_t_0935-0952_39"
    INDEX 01 00:43:67
  TRACK 40 AUDIO
    TITLE "2Q_t_0935-0952_40"
    INDEX 01 00:44:41
  TRACK 41 AUDIO
    TITLE "2Q_t_0935-0952_41"
    INDEX 01 00:46:46
  TRACK 42 AUDIO
    TITLE "2Q_t_0935-0952_42"
    INDEX 01 00:47:14
  TRACK 43 AUDIO
    TITLE "2Q_t_0935-0952_43"
    INDEX 01 00:48:31
  TRACK 44 AUDIO
    TITLE "2Q_t_0935-0952_44"
    INDEX 01 00:49:01
  TRACK 45 AUDIO
    TITLE "2Q_t_0935-0952_45"
    INDEX 01 00:51:25
  TRACK 46 AUDIO
    TITLE "2Q_t_0935-0952_46"
    INDEX 01 00:51:70
  TRACK 47 AUDIO
    TITLE "2Q_t_0935-0952_47"
    INDEX 01 00:53:05
  TRACK 48 AUDIO
    TITLE "2Q_t_0935-0952_48"
    INDEX 01 00:53:52
  TRACK 49 AUDIO
    TITLE "2Q_t_0935-0952_49"
    INDEX 01 00:56:17
  TRACK 50 AUDIO
    TITLE "2Q_t_0935-0952_50"
    INDEX 01 00:56:62
  TRACK 51 AUDIO
    TITLE "2Q_t_0935-0952_51"
    INDEX 01 00:57:71
  TRACK 52 AUDIO
    TITLE "2Q_t_0935-0952_52"
    INDEX 01 00:58:43
  TRACK 53 AUDIO
    TITLE "2Q_t_0935-0952_53"
    INDEX 01 01:00:34
  TRACK 54 AUDIO
    TITLE "2Q_t_0935-0952_54"
    INDEX 01 01:01:04
  TRACK 55 AUDIO
    TITLE "2Q_t_0935-0952_55"
    INDEX 01 01:02:27
  TRACK 56 AUDIO
    TITLE "2Q_t_0935-0952_56"
    INDEX 01 01:02:74
  TRACK 57 AUDIO
    TITLE "2Q_t_0935-0952_57"
    INDEX 01 01:04:16
  TRACK 58 AUDIO
    TITLE "2Q_t_0935-0952_58"
    INDEX 01 01:04:63
  TRACK 59 AUDIO
    TITLE "2Q_t_0935-0952_59"
    INDEX 01 01:05:65
  TRACK 60 AUDIO
    TITLE "2Q_t_0935-0952_60"
    INDEX 01 01:06:35
  TRACK 61 AUDIO
    TITLE "2Q_t_0935-0952_61"
    INDEX 01 01:09:62
  TRACK 62 AUDIO
    TITLE "2Q_t_0935-0952_62"
    INDEX 01 01:10:32
  TRACK 63 AUDIO
    TITLE "2Q_t_0935-0952_63"
    INDEX 01 01:11:67
  TRACK 64 AUDIO
    TITLE "2Q_t_0935-0952_64"
    INDEX 01 01:12:49
  TRACK 65 AUDIO
    TITLE "2Q_t_0935-0952_65"
    INDEX 01 01:14:20
  TRACK 66 AUDIO
    TITLE "2Q_t_0935-0952_66"
    INDEX 01 01:14:66
  TRACK 67 AUDIO
    TITLE "2Q_t_0935-0952_67"
    INDEX 01 01:16:37
  TRACK 68 AUDIO
    TITLE "2Q_t_0935-0952_68"
    INDEX 01 01:17:07
  TRACK 69 AUDIO
    TITLE "2Q_t_0935-0952_69"
    INDEX 01 01:21:28
  TRACK 70 AUDIO
    TITLE "2Q_t_0935-0952_70"
    INDEX 01 01:21:73
  TRACK 71 AUDIO
    TITLE "2Q_t_0935-0952_71"
    INDEX 01 01:23:17
  TRACK 72 AUDIO
    TITLE "2Q_t_0935-0952_72"
    INDEX 01 01:23:68
  TRACK 73 AUDIO
    TITLE "2Q_t_0935-0952_73"
    INDEX 01 01:26:08
